<svg width="20" height="20" viewBox="0 0 15 15" class="" role="presentation" focusable="false" xmlns="http://www.w3.org/2000/svg" xmlns:xlink="http://www.w3.org/1999/xlink" id="FxSymbol0-065" data-type="1"><g><title></title><g clip-path="url(#f60876b6-cd87-48a1-8919-c60da78ef0ea)"><path d="M10.2 11.7V0H.3v11.7h9.9Z" class="msportalfx-svg-c15" fill="#59b4d9"></path><path opacity=".8" d="M9.6 11.1V.6H.9v10.5h8.7Z" class="msportalfx-svg-c01" fill="#ffffff"></path><path d="M8.4 1.8H4.8v.6h3.6v-.6ZM7.2 3H4.8v.6h2.4V3Zm0 3H4.8v.6h2.4V6Zm0 3H4.8v.6h2.4V9Zm1.2-4.2H4.8v.6h3.6v-.6Zm0 3H4.8v.6h3.6v-.6Z" class="msportalfx-svg-c15" fill="#59b4d9"></path><path d="M10.35 12.938a2.588 2.588 0 1 0 0-5.176 2.588 2.588 0 0 0 0 5.176Z" class="msportalfx-svg-c01" fill="#ffffff"></path><path opacity=".4" d="M7.463 10.35c0 .752.29 1.436.764 1.95H11.1V7.713a3.242 3.242 0 0 0-.843-.245 2.888 2.888 0 0 0-2.794 2.882Z" class="msportalfx-svg-c16" fill="#3999c6"></path><path opacity=".6" d="M7.8 11.432a2.574 2.574 0 0 1-.6-1.65A2.574 2.574 0 0 1 9.677 7.2c.194.031.381.08.56.146v4.086H7.8Z" class="msportalfx-svg-c01" fill="#ffffff"></path><path d="M14.453 15a.509.509 0 0 0 .512-.508.508.508 0 0 0-.148-.363l-1.769-1.769-.723.723 1.764 1.765a.51.51 0 0 0 .364.152Z" class="msportalfx-svg-c04" fill="#7a7a7a"></path><path opacity=".4" d="M12.965 13.723a1.703 1.703 0 0 0 .72-.72l.002-.004-.49-.49-.723.723.49.492.001-.001Z" fill="#000"></path><path d="M10.35 6.78a3.57 3.57 0 1 0 0 7.14 3.57 3.57 0 0 0 0-7.14Zm0 6.157a2.59 2.59 0 0 1-2.588-2.587 2.59 2.59 0 0 1 2.588-2.587 2.59 2.59 0 0 1 2.588 2.587 2.59 2.59 0 0 1-2.588 2.588Z" class="msportalfx-svg-c04" fill="#7a7a7a"></path><path d="m2.566 6.59-.89-.901a.09.09 0 0 1 0-.127l.193-.19a.09.09 0 0 1 .127 0l.558.565.964-1.24a.09.09 0 0 1 .126-.016l.213.166a.09.09 0 0 1 .016.126L2.62 6.586a.036.036 0 0 1-.054.003Zm0 3-.89-.901a.09.09 0 0 1 0-.127l.193-.19a.09.09 0 0 1 .127 0l.558.565.964-1.24a.09.09 0 0 1 .126-.016l.213.166a.09.09 0 0 1 .016.126L2.62 9.586a.036.036 0 0 1-.054.003Z" class="msportalfx-svg-c15" fill="#59b4d9"></path><path d="M3.6 1.8 1.8 3.6m1.8 0L1.8 1.8" stroke="#59B4D9" stroke-width=".5"></path></g><defs></defs></g><defs>
<clipPath id="f60876b6-cd87-48a1-8919-c60da78ef0ea"><path d="M0 0h15v15H0z" class="msportalfx-svg-c01"></path></clipPath>
</defs>
</svg>