<svg width="20" height="20" viewBox="0 0 15 15" class="" role="presentation" focusable="false" xmlns="http://www.w3.org/2000/svg" xmlns:xlink="http://www.w3.org/1999/xlink" id="FxSymbol0-035" data-type="1"><g><title></title><path d="M.306 5.251v3.656l1.523 1.554h3.682V5.25H.306Z" class="msportalfx-svg-c16" fill="#3999c6"></path><path d="M9.796 14.751h-3.65L4.592 13.2V9.54h5.204v5.21Z" class="msportalfx-svg-c16" fill="#3999c6"></path><path d="m5.34 13.96 7.42-7.429-4.325-4.329-7.42 7.428 4.325 4.33Z" class="msportalfx-svg-c02" fill="#e5e5e5"></path><path d="M5.367 13.98 2.668 15 0 12.33l1.02-2.703 4.347 4.352ZM8.455 2.215c2.668-2.671 6.506-2.16 6.506-2.16s.51 3.811-2.159 6.512L8.455 2.215Z" class="msportalfx-svg-c15" fill="#59b4d9"></path><path d="M8.155 8.007a1.17 1.17 0 1 0 0-2.34 1.17 1.17 0 0 0 0 2.34Z" class="msportalfx-svg-c19" fill="#0072c6"></path><path opacity=".15" d="M14.841.023c-.66-.06-3.987-.177-6.386 2.225l-2.97 3.003H.306v3.656l.746.75L0 12.33l1.26 1.26L14.841.023Z" class="msportalfx-svg-c01" fill="#ffffff"></path></g><defs>
</defs>
</svg>